<svg width="20" height="20" viewBox="0 0 20 20" xmlns="http://www.w3.org/2000/svg">
<g>
<path d="M9.38338 17.6772C4.84281 11.0947 4 10.4192 4 8C4 4.68628 6.68628 2 10 2C13.3137 2 16 4.68628 16 8C16 10.4192 15.1572 11.0947 10.6166 17.6772C10.3187 18.1076 9.68131 18.1076 9.38338 17.6772ZM10 10.5C11.3807 10.5 12.5 9.38072 12.5 8C12.5 6.61928 11.3807 5.5 10 5.5C8.61928 5.5 7.5 6.61928 7.5 8C7.5 9.38072 8.61928 10.5 10 10.5Z"/>
</g>
<defs>
<clipPath>
<rect width="12" height="16" transform="translate(4 2)"/>
</clipPath>
</defs>
</svg>
