<svg width="25" height="25" viewBox="0 0 25 25" xmlns="http://www.w3.org/2000/svg">
<path d="M11.3134 12.6793C12.5394 13.9493 14.0227 14.9298 15.6593 15.5519L17.8733 13.7528C17.939 13.7066 18.0168 13.6819 18.0965 13.6819C18.1762 13.6819 18.254 13.7066 18.3197 13.7528L22.4306 16.4575C22.5867 16.5533 22.7188 16.6848 22.8166 16.8417C22.9143 16.9987 22.9749 17.1766 22.9937 17.3616C23.0125 17.5465 22.9889 17.7334 22.9249 17.9075C22.8608 18.0816 22.7579 18.238 22.6245 18.3645L20.6982 20.3075C20.4223 20.5859 20.0833 20.7902 19.7113 20.9021C19.3393 21.0141 18.9459 21.0303 18.5663 20.9492C14.7797 20.1506 11.2894 18.2803 8.49447 15.5519C5.76155 12.7964 3.87039 9.29031 3.05038 5.4589C2.96937 5.07728 2.98628 4.68075 3.09946 4.30776C3.21264 3.93477 3.41826 3.59795 3.69639 3.32996L5.69314 1.36293C5.81671 1.23327 5.9674 1.13383 6.13393 1.07206C6.30046 1.0103 6.47851 0.9878 6.65476 1.00626C6.83101 1.02472 7.00089 1.08366 7.15168 1.17866C7.30246 1.27366 7.43025 1.40226 7.52546 1.55484L10.2622 5.69879C10.3094 5.76386 10.3349 5.84269 10.3349 5.92367C10.3349 6.00465 10.3094 6.08349 10.2622 6.14856L8.45924 8.36147C9.08503 9.99922 10.06 11.4742 11.3134 12.6793Z"/>
</svg>
