<svg width="25" height="25" viewBox="0 0 25 25" xmlns="http://www.w3.org/2000/svg">
<path d="M16.6 14.3188C16.0694 14.3188 15.656 14.4525 15.2183 14.5941C15.1568 14.614 15.0949 14.634 15.032 14.6538C14.5215 14.8152 13.9257 14.975 13 14.975C12.0743 14.975 11.4796 14.8152 10.9695 14.6539C10.9072 14.6341 10.8457 14.6142 10.7846 14.5945C10.3467 14.4527 9.93287 14.3188 9.4 14.3188C6.33301 14.3188 3.85 16.858 3.85 19.9812V21.0312C3.85 22.1981 4.7781 23.15 5.92857 23.15H20.0714C21.2219 23.15 22.15 22.1981 22.15 21.0312V19.9812C22.15 16.858 19.667 14.3188 16.6 14.3188ZM6.07857 20.8813V19.9812C6.07857 18.1088 7.57324 16.5875 9.4 16.5875C9.52247 16.5875 9.67326 16.6223 9.87681 16.6836C9.9512 16.7061 10.0346 16.7327 10.1251 16.7617C10.2696 16.8078 10.4322 16.8598 10.6055 16.9098C11.1846 17.0767 11.9522 17.2437 13 17.2437C14.0558 17.2437 14.8224 17.0767 15.3992 16.9097C15.5719 16.8597 15.7338 16.8077 15.8775 16.7615C15.9674 16.7326 16.0501 16.706 16.124 16.6836C16.3263 16.6222 16.4766 16.5875 16.6 16.5875C18.4268 16.5875 19.9214 18.1088 19.9214 19.9812V20.8813H6.07857ZM13 13.9625C16.2799 13.9625 18.9357 11.2469 18.9357 7.90625C18.9357 4.5656 16.2799 1.85 13 1.85C9.72006 1.85 7.06429 4.5656 7.06429 7.90625C7.06429 11.2469 9.72006 13.9625 13 13.9625ZM13 4.11875C15.0397 4.11875 16.7071 5.81644 16.7071 7.90625C16.7071 9.99606 15.0397 11.6938 13 11.6938C10.9603 11.6938 9.29286 9.99606 9.29286 7.90625C9.29286 5.81644 10.9603 4.11875 13 4.11875Z" stroke-width="0.3"/>
</svg>
