<svg width="25" height="25" viewBox="0 0 25 25"  xmlns="http://www.w3.org/2000/svg">
<path d="M16.75 12.1406V13.3984C16.75 13.6949 16.5109 13.9375 16.2188 13.9375H8.78125C8.48906 13.9375 8.25 13.6949 8.25 13.3984V12.1406C8.25 11.8441 8.48906 11.6016 8.78125 11.6016H16.2188C16.5109 11.6016 16.75 11.8441 16.75 12.1406ZM16.2188 15.375H8.78125C8.48906 15.375 8.25 15.6176 8.25 15.9141V17.1719C8.25 17.4684 8.48906 17.7109 8.78125 17.7109H16.2188C16.5109 17.7109 16.75 17.4684 16.75 17.1719V15.9141C16.75 15.6176 16.5109 15.375 16.2188 15.375ZM21 6.9252V21.8438C21 23.0342 20.0482 24 18.875 24H6.125C4.95182 24 4 23.0342 4 21.8438V3.15625C4 1.96582 4.95182 1 6.125 1H15.1607C15.7229 1 16.263 1.2291 16.6615 1.6334L20.3758 5.40234C20.7742 5.80215 21 6.35469 21 6.9252ZM15.3333 3.33145V6.75H18.7023L15.3333 3.33145ZM18.875 21.8438V8.90625H14.2708C13.682 8.90625 13.2083 8.42559 13.2083 7.82812V3.15625H6.125V21.8438H18.875Z" />
</svg>
