<svg width="25" height="25" viewBox="0 0 25 25" xmlns="http://www.w3.org/2000/svg">
<g>
<path d="M21.8797 14.2703L23.7263 6.14527C23.8596 5.55863 23.4137 5 22.8121 5H7.46906L7.11102 3.24961C7.0218 2.81332 6.63789 2.5 6.19254 2.5H2.1875C1.66973 2.5 1.25 2.91973 1.25 3.4375V4.0625C1.25 4.58027 1.66973 5 2.1875 5H4.9173L7.66137 18.4154C7.00488 18.793 6.5625 19.5009 6.5625 20.3125C6.5625 21.5206 7.54187 22.5 8.75 22.5C9.95813 22.5 10.9375 21.5206 10.9375 20.3125C10.9375 19.7002 10.6857 19.1471 10.2803 18.75H18.4696C18.0643 19.1471 17.8125 19.7002 17.8125 20.3125C17.8125 21.5206 18.7919 22.5 20 22.5C21.2081 22.5 22.1875 21.5206 22.1875 20.3125C22.1875 19.4464 21.6841 18.698 20.9539 18.3436L21.1695 17.3953C21.3028 16.8086 20.8569 16.25 20.2553 16.25H9.7702L9.51453 15H20.9655C21.4032 15 21.7827 14.6971 21.8797 14.2703Z" />
</g>
<defs>
<clipPath id="clip0">
<rect width="22.5" height="20" transform="translate(1.25 2.5)"/>
</clipPath>
</defs>
</svg>
