<svg width="0" height="0" class="hidden">
    <symbol viewBox="0 0 25 25" xmlns="http://www.w3.org/2000/svg" id="ico_cart">
        <path d="M21.88 14.27l1.846-8.125A.938.938 0 0 0 22.812 5H7.47l-.358-1.75a.937.937 0 0 0-.918-.75H2.188a.937.937 0 0 0-.938.938v.624c0 .518.42.938.938.938h2.73L7.66 18.415A2.186 2.186 0 0 0 8.75 22.5a2.188 2.188 0 0 0 1.53-3.75h8.19a2.188 2.188 0 1 0 2.484-.406l.215-.949a.938.938 0 0 0-.914-1.145H9.77L9.515 15h11.45a.938.938 0 0 0 .915-.73z"></path>
        <defs>
            <clipPath id="clip0">
                <path transform="translate(1.25 2.5)" d="M0 0h22.5v20H0z"></path>
            </clipPath>
        </defs>
    </symbol>
    <symbol viewBox="0 0 25 25" xmlns="http://www.w3.org/2000/svg" id="ico_tel">
        <path d="M11.313 12.68a11.94 11.94 0 0 0 4.346 2.872l2.214-1.8a.388.388 0 0 1 .447 0l4.11 2.705c.157.096.289.228.387.385a1.217 1.217 0 0 1-.192 1.523l-1.927 1.943a2.338 2.338 0 0 1-.987.594 2.301 2.301 0 0 1-1.145.047 20.47 20.47 0 0 1-10.072-5.397A20.388 20.388 0 0 1 3.05 5.459a2.313 2.313 0 0 1 .05-1.151c.113-.373.318-.71.596-.978l1.997-1.967a1.172 1.172 0 0 1 .962-.357 1.187 1.187 0 0 1 .87.549l2.737 4.144a.383.383 0 0 1 0 .45L8.46 8.36a11.86 11.86 0 0 0 2.854 4.318z"></path>
    </symbol>
    <symbol viewBox="0 0 35 35" xmlns="http://www.w3.org/2000/svg" id="ico_youtube">
        <path d="M25.666 13.721a1.988 1.988 0 0 0-1.415-1.392C23.003 12 18 12 18 12s-5.003 0-6.251.329a1.988 1.988 0 0 0-1.415 1.392C10 14.95 10 17.511 10 17.511s0 2.562.334 3.79c.184.678.726 1.189 1.415 1.37C12.997 23 18 23 18 23s5.003 0 6.251-.329c.688-.181 1.23-.692 1.415-1.37.334-1.228.334-3.79.334-3.79s0-2.562-.334-3.79zm-9.302 6.116v-4.652l4.181 2.326-4.181 2.326z"></path>
    </symbol>
    <symbol viewBox="0 0 35 35" xmlns="http://www.w3.org/2000/svg" id="ico_facebook">
        <path d="M21.476 18.563l.415-3.077h-2.594v-1.997c0-.841.362-1.662 1.524-1.662H22v-2.62S20.93 9 19.907 9c-2.136 0-3.533 1.474-3.533 4.141v2.345H14v3.076h2.374V26h2.923v-7.438h2.179z"></path>
    </symbol>
    <symbol viewBox="0 0 35 35" xmlns="http://www.w3.org/2000/svg" id="ico_vk">
        <path d="M26.278 13.753c.128-.434 0-.753-.618-.753h-2.045c-.521 0-.76.274-.89.58 0 0-1.041 2.537-2.513 4.182-.476.475-.695.628-.955.628-.129 0-.326-.153-.326-.587v-4.05c0-.52-.146-.753-.577-.753H15.14c-.326 0-.52.243-.52.469 0 .492.735.607.812 1.995v3.013c0 .659-.118.78-.379.78-.694 0-2.382-2.547-3.382-5.462-.201-.566-.4-.795-.924-.795H8.701c-.583 0-.701.274-.701.58 0 .541.694 3.23 3.233 6.784 1.69 2.426 4.073 3.742 6.24 3.742 1.301 0 1.461-.292 1.461-.795 0-2.318-.118-2.537.535-2.537.302 0 .823.153 2.038 1.322 1.389 1.389 1.618 2.01 2.396 2.01h2.045c.583 0 .878-.292.708-.868-.389-1.211-3.017-3.703-3.135-3.87-.302-.388-.215-.562 0-.909.003-.003 2.5-3.515 2.757-4.706z"></path>
    </symbol>
    <symbol viewBox="0 0 50 50" xmlns="http://www.w3.org/2000/svg" id="ico_menu">
        <rect x="12" y="16" width="26" height="3" rx="1"></rect>
        <rect x="12" y="24" width="26" height="3" rx="1"></rect>
        <rect x="12" y="32" width="26" height="3" rx="1"></rect>
    </symbol>
    <symbol viewBox="0 0 20 20" xmlns="http://www.w3.org/2000/svg" id="ico_location">
        <path d="M9.383 17.677C4.843 11.095 4 10.42 4 8a6 6 0 1 1 12 0c0 2.42-.843 3.095-5.383 9.677a.75.75 0 0 1-1.234 0zM10 10.5a2.5 2.5 0 1 0 0-5 2.5 2.5 0 0 0 0 5z"></path>
    </symbol>
    <symbol viewBox="0 0 25 25" xmlns="http://www.w3.org/2000/svg" id="ico_cart-empty">
        <path d="M6.378 5.705l.167.795h16.438l-1.859 8H8.218l.251 1.205.262 1.25.166.795H20.37l-.117.5H8.436L5.728 5.295 5.56 4.5H2V4h4.022l.356 1.705zm14.01 11.964zm-1.094 2.303l.72-.689-.028.118.727.346c.42.199.69.609.69 1.066 0 .635-.533 1.187-1.236 1.187-.704 0-1.236-.552-1.236-1.188 0-.324.135-.62.363-.84zm-10.611-.544l-.073-.346.93.89c.228.22.363.516.363.84 0 .636-.533 1.188-1.236 1.188-.704 0-1.236-.552-1.236-1.188 0-.427.237-.813.613-1.025l.639-.36zM6.013 3.954z"
              stroke-width="2"></path>
    </symbol>
    <symbol viewBox="0 0 25 25" xmlns="http://www.w3.org/2000/svg" id="ico_list">
        <path d="M3.969 3c-.39 0-.77.122-1.094.35a2.057 2.057 0 0 0-.725.932c-.15.38-.188.797-.112 1.2.076.403.263.773.539 1.064.275.29.626.488 1.008.568.382.08.777.039 1.137-.118s.667-.424.884-.765c.216-.342.332-.743.332-1.154 0-.55-.208-1.08-.577-1.469A1.92 1.92 0 0 0 3.969 3zm0 6.923c-.39 0-.77.122-1.094.35a2.057 2.057 0 0 0-.725.932c-.15.38-.188.797-.112 1.2.076.403.263.773.539 1.064.275.29.626.488 1.008.568.382.08.777.039 1.137-.118s.667-.424.884-.765A2.16 2.16 0 0 0 5.938 12c0-.55-.208-1.08-.577-1.469-.37-.39-.87-.608-1.392-.608zm0 6.923c-.39 0-.77.122-1.094.35a2.057 2.057 0 0 0-.725.932c-.15.38-.188.797-.112 1.2.076.403.263.773.539 1.064.275.29.626.488 1.008.568.382.08.777.04 1.137-.118.36-.157.667-.423.884-.765a2.16 2.16 0 0 0 .332-1.154c0-.55-.208-1.079-.577-1.468-.37-.39-.87-.609-1.392-.609zm18.375.692H9.219a.64.64 0 0 0-.464.203.712.712 0 0 0-.193.49v1.384c0 .184.07.36.193.49a.64.64 0 0 0 .464.203h13.125a.64.64 0 0 0 .464-.203.712.712 0 0 0 .192-.49v-1.384c0-.184-.07-.36-.192-.49a.64.64 0 0 0-.464-.203zm0-13.846H9.219a.64.64 0 0 0-.464.203.712.712 0 0 0-.193.49v1.384c0 .184.07.36.193.49a.64.64 0 0 0 .464.203h13.125a.64.64 0 0 0 .464-.203.712.712 0 0 0 .192-.49V4.385c0-.184-.07-.36-.192-.49a.64.64 0 0 0-.464-.203zm0 6.923H9.219a.64.64 0 0 0-.464.203.712.712 0 0 0-.193.49v1.384c0 .184.07.36.193.49a.64.64 0 0 0 .464.203h13.125a.64.64 0 0 0 .464-.203.712.712 0 0 0 .192-.49v-1.384c0-.184-.07-.36-.192-.49a.64.64 0 0 0-.464-.203z"></path>
    </symbol>
    <symbol viewBox="0 0 25 25" xmlns="http://www.w3.org/2000/svg" id="ico_person">
        <path d="M16.6 14.319c-.53 0-.944.133-1.382.275l-.186.06a6.21 6.21 0 0 1-2.032.321c-.926 0-1.52-.16-2.03-.321l-.185-.06c-.438-.141-.852-.275-1.385-.275-3.067 0-5.55 2.539-5.55 5.662v1.05c0 1.167.928 2.119 2.079 2.119H20.07c1.15 0 2.079-.952 2.079-2.119v-1.05c0-3.123-2.483-5.662-5.55-5.662zM6.079 20.88v-.9c0-1.872 1.494-3.394 3.321-3.394.122 0 .273.035.477.097.074.022.158.049.248.078.145.046.307.098.48.148a8.36 8.36 0 0 0 2.395.334 8.33 8.33 0 0 0 2.4-.334c.172-.05.334-.102.477-.148.09-.03.173-.056.247-.078.202-.062.353-.097.476-.097 1.827 0 3.321 1.522 3.321 3.394v.9H6.08zM13 13.963c3.28 0 5.936-2.716 5.936-6.057 0-3.34-2.656-6.056-5.936-6.056S7.064 4.566 7.064 7.906 9.72 13.963 13 13.963zm0-9.844c2.04 0 3.707 1.697 3.707 3.787S15.04 11.694 13 11.694 9.293 9.996 9.293 7.906 10.96 4.12 13 4.12z"
              stroke-width=".3"></path>
    </symbol>
    <symbol viewBox="0 0 25 25" xmlns="http://www.w3.org/2000/svg" id="ico_blank">
        <path d="M16.75 12.14v1.258c0 .297-.24.54-.531.54H8.78a.537.537 0 0 1-.531-.54v-1.257c0-.297.24-.54.531-.54h7.438c.292 0 .531.243.531.54zm-.531 3.235H8.78a.537.537 0 0 0-.531.54v1.257c0 .296.24.539.531.539h7.438a.537.537 0 0 0 .531-.54v-1.257a.538.538 0 0 0-.531-.539zM21 6.925v14.919c0 1.19-.952 2.156-2.125 2.156H6.125C4.952 24 4 23.034 4 21.844V3.156C4 1.966 4.952 1 6.125 1h9.036c.562 0 1.102.23 1.5.633l3.715 3.77c.398.4.624.952.624 1.522zm-5.667-3.594V6.75h3.37l-3.37-3.419zm3.542 18.513V8.906h-4.604c-.589 0-1.063-.48-1.063-1.078V3.156H6.125v18.688h12.75z"></path>
    </symbol>
    <symbol viewBox="0 0 25 25" xmlns="http://www.w3.org/2000/svg" id="ico_search">
        <path d="M22.714 20.156l-4.09-4.089a.983.983 0 0 0-.697-.287h-.668a8.488 8.488 0 0 0 1.805-5.25A8.53 8.53 0 0 0 10.532 2 8.53 8.53 0 0 0 2 10.53a8.53 8.53 0 0 0 8.532 8.53 8.491 8.491 0 0 0 5.25-1.804v.669c0 .262.103.512.287.697l4.09 4.089a.98.98 0 0 0 1.39 0l1.161-1.16a.989.989 0 0 0 .004-1.395zM10.532 15.78c-2.9 0-5.25-2.346-5.25-5.25 0-2.9 2.346-5.25 5.25-5.25 2.9 0 5.25 2.347 5.25 5.25 0 2.9-2.346 5.25-5.25 5.25z"></path>
    </symbol>
</svg>