<svg width="23" height="24" viewBox="0 0 23 24"  xmlns="http://www.w3.org/2000/svg">
<path d="M5.87817 9.83398H4.48602C4.3112 9.83398 4.14352 9.90359 4.02006 10.0274C3.89659 10.1512 3.82756 10.3191 3.82813 10.494L3.83782 15.4916C3.83782 15.8549 4.13238 16.1495 4.49572 16.1495C4.85905 16.1495 5.15361 15.8549 5.15361 15.4916V13.9742C5.4226 13.9728 5.70997 13.9716 5.87817 13.9716C7.03414 13.9716 7.97462 13.0435 7.97462 11.9028C7.97462 10.7621 7.03414 9.83398 5.87817 9.83398ZM5.87817 12.6558C5.70848 12.6558 5.42006 12.657 5.15001 12.6584C5.14861 12.3783 5.14738 12.0767 5.14738 11.9028C5.14738 11.754 5.14664 11.4425 5.14585 11.1498H5.87813C6.30129 11.1498 6.65879 11.4946 6.65879 11.9028C6.65879 12.311 6.30133 12.6558 5.87817 12.6558Z"/>
<path d="M11.4734 9.83398H10.0993C9.92461 9.83398 9.75707 9.90346 9.63364 10.0271C9.51022 10.1507 9.44106 10.3184 9.44141 10.4931C9.44141 10.4932 9.45119 15.3285 9.45123 15.346C9.45189 15.5205 9.5218 15.6876 9.64566 15.8106C9.76895 15.9329 9.93553 16.0015 10.1091 16.0015H10.1116C10.1532 16.0014 11.1333 15.9976 11.5251 15.9908C13.0117 15.9648 14.0907 14.6724 14.0907 12.9178C14.0906 11.0733 13.0389 9.83398 11.4734 9.83398ZM11.5022 14.6752C11.3318 14.6782 11.0386 14.6806 10.7648 14.6824C10.763 14.1109 10.7594 11.7436 10.7584 11.1498H11.4734C12.681 11.1498 12.7748 12.503 12.7748 12.9178C12.7748 13.7815 12.3813 14.6599 11.5022 14.6752Z"/>
<path d="M18.4233 11.099C18.7867 11.099 19.0812 10.8044 19.0812 10.4411C19.0812 10.0778 18.7867 9.7832 18.4233 9.7832H16.4118C16.0485 9.7832 15.7539 10.0778 15.7539 10.4411V15.4042C15.7539 15.7675 16.0485 16.0621 16.4118 16.0621C16.7751 16.0621 17.0697 15.7675 17.0697 15.4042V13.5336H18.2636C18.6269 13.5336 18.9215 13.239 18.9215 12.8757C18.9215 12.5123 18.6269 12.2178 18.2636 12.2178H17.0697V11.099H18.4233Z"/>
<path d="M20.361 7.02664H19.8785V6.83897C19.8785 5.99326 19.5581 5.18954 18.9762 4.57576L16.2435 1.69326C15.6252 1.04107 14.7551 0.666992 13.8563 0.666992H5.09779C4.0095 0.666992 3.12411 1.55239 3.12411 2.64068V7.02664H2.64165C1.55336 7.02664 0.667969 7.91204 0.667969 9.00033V16.8951C0.667969 17.9834 1.55336 18.8687 2.64165 18.8687H3.12411V21.1495C3.12411 22.2377 4.0095 23.1231 5.09779 23.1231H17.9048C18.9931 23.1231 19.8785 22.2377 19.8785 21.1495V18.8687H20.361C21.4492 18.8687 22.3346 17.9834 22.3346 16.8951V9.00033C22.3346 7.91204 21.4492 7.02664 20.361 7.02664ZM4.4399 2.64068C4.4399 2.27791 4.73503 1.98278 5.09779 1.98278H13.8563C14.3956 1.98278 14.9177 2.20721 15.2887 2.59857L18.0213 5.48107C18.3705 5.84932 18.5627 6.33155 18.5627 6.83897V7.02664H4.4399V2.64068ZM18.5627 21.1495C18.5627 21.5122 18.2676 21.8073 17.9048 21.8073H5.09779C4.73503 21.8073 4.4399 21.5122 4.4399 21.1495V18.8687H18.5627V21.1495ZM21.0188 16.8951C21.0188 17.2578 20.7237 17.553 20.361 17.553H2.64165C2.27889 17.553 1.98376 17.2578 1.98376 16.8951V9.00033C1.98376 8.63756 2.27889 8.34243 2.64165 8.34243H20.361C20.7237 8.34243 21.0188 8.63756 21.0188 9.00033V16.8951Z"/>
</svg>
