<svg width="35" height="35" viewBox="0 0 35 35"  xmlns="http://www.w3.org/2000/svg">
<path d="M26.2778 13.7531C26.4063 13.3193 26.2778 13 25.6597 13H23.6146C23.0938 13 22.8542 13.2742 22.7257 13.5796C22.7257 13.5796 21.684 16.1166 20.2118 17.7616C19.7361 18.2371 19.5174 18.3898 19.2569 18.3898C19.1285 18.3898 18.9306 18.2371 18.9306 17.8032V13.7531C18.9306 13.2325 18.7847 13 18.3542 13H15.1389C14.8125 13 14.6181 13.2429 14.6181 13.4685C14.6181 13.9613 15.3542 14.0759 15.4306 15.4641V18.4765C15.4306 19.1359 15.3125 19.2574 15.0521 19.2574C14.3576 19.2574 12.6701 16.71 11.6701 13.7948C11.4688 13.2291 11.2708 13 10.7465 13H8.70139C8.11806 13 8 13.2742 8 13.5796C8 14.121 8.69444 16.8107 11.2326 20.3645C12.9236 22.7904 15.3056 24.1058 17.4722 24.1058C18.7743 24.1058 18.934 23.8142 18.934 23.311C18.934 20.9927 18.816 20.774 19.4688 20.774C19.7708 20.774 20.2917 20.9267 21.5069 22.0963C22.8958 23.4845 23.125 24.1058 23.9028 24.1058H25.9479C26.5313 24.1058 26.8264 23.8142 26.6563 23.2381C26.2674 22.0269 23.6389 19.5351 23.5208 19.3685C23.2188 18.9798 23.3056 18.8062 23.5208 18.4592C23.5243 18.4557 26.0208 14.9435 26.2778 13.7531Z"/>
</svg>
