<svg width="25" height="25" viewBox="0 0 25 25"  xmlns="http://www.w3.org/2000/svg">
<path d="M3.96875 3C3.57937 3 3.19873 3.12181 2.87497 3.35002C2.55121 3.57824 2.29887 3.90261 2.14986 4.28212C2.00085 4.66163 1.96187 5.07923 2.03783 5.48211C2.11379 5.88499 2.3013 6.25507 2.57663 6.54553C2.85197 6.83599 3.20277 7.0338 3.58467 7.11394C3.96657 7.19408 4.36242 7.15295 4.72216 6.99575C5.0819 6.83855 5.38938 6.57235 5.60571 6.2308C5.82204 5.88925 5.9375 5.4877 5.9375 5.07692C5.9375 4.52609 5.73008 3.99782 5.36087 3.60832C4.99166 3.21882 4.4909 3 3.96875 3ZM3.96875 9.92308C3.57937 9.92308 3.19873 10.0449 2.87497 10.2731C2.55121 10.5013 2.29887 10.8257 2.14986 11.2052C2.00085 11.5847 1.96187 12.0023 2.03783 12.4052C2.11379 12.8081 2.3013 13.1781 2.57663 13.4686C2.85197 13.7591 3.20277 13.9569 3.58467 14.037C3.96657 14.1172 4.36242 14.076 4.72216 13.9188C5.0819 13.7616 5.38938 13.4954 5.60571 13.1539C5.82204 12.8123 5.9375 12.4108 5.9375 12C5.9375 11.4492 5.73008 10.9209 5.36087 10.5314C4.99166 10.1419 4.4909 9.92308 3.96875 9.92308ZM3.96875 16.8462C3.57937 16.8462 3.19873 16.968 2.87497 17.1962C2.55121 17.4244 2.29887 17.7488 2.14986 18.1283C2.00085 18.5078 1.96187 18.9254 2.03783 19.3283C2.11379 19.7311 2.3013 20.1012 2.57663 20.3917C2.85197 20.6821 3.20277 20.88 3.58467 20.9601C3.96657 21.0402 4.36242 20.9991 4.72216 20.8419C5.0819 20.6847 5.38938 20.4185 5.60571 20.077C5.82204 19.7354 5.9375 19.3339 5.9375 18.9231C5.9375 18.3722 5.73008 17.844 5.36087 17.4545C4.99166 17.065 4.4909 16.8462 3.96875 16.8462ZM22.3438 17.5385H9.21875C9.0447 17.5385 8.87778 17.6114 8.75471 17.7412C8.63164 17.8711 8.5625 18.0472 8.5625 18.2308V19.6154C8.5625 19.799 8.63164 19.9751 8.75471 20.1049C8.87778 20.2348 9.0447 20.3077 9.21875 20.3077H22.3438C22.5178 20.3077 22.6847 20.2348 22.8078 20.1049C22.9309 19.9751 23 19.799 23 19.6154V18.2308C23 18.0472 22.9309 17.8711 22.8078 17.7412C22.6847 17.6114 22.5178 17.5385 22.3438 17.5385ZM22.3438 3.69231H9.21875C9.0447 3.69231 8.87778 3.76525 8.75471 3.89508C8.63164 4.02491 8.5625 4.201 8.5625 4.38462V5.76923C8.5625 5.95284 8.63164 6.12893 8.75471 6.25877C8.87778 6.3886 9.0447 6.46154 9.21875 6.46154H22.3438C22.5178 6.46154 22.6847 6.3886 22.8078 6.25877C22.9309 6.12893 23 5.95284 23 5.76923V4.38462C23 4.201 22.9309 4.02491 22.8078 3.89508C22.6847 3.76525 22.5178 3.69231 22.3438 3.69231ZM22.3438 10.6154H9.21875C9.0447 10.6154 8.87778 10.6883 8.75471 10.8182C8.63164 10.948 8.5625 11.1241 8.5625 11.3077V12.6923C8.5625 12.8759 8.63164 13.052 8.75471 13.1818C8.87778 13.3117 9.0447 13.3846 9.21875 13.3846H22.3438C22.5178 13.3846 22.6847 13.3117 22.8078 13.1818C22.9309 13.052 23 12.8759 23 12.6923V11.3077C23 11.1241 22.9309 10.948 22.8078 10.8182C22.6847 10.6883 22.5178 10.6154 22.3438 10.6154Z" />
</svg>
