<svg width="9" height="21" viewBox="0 0 9 21" xmlns="http://www.w3.org/2000/svg">
<path d="M3.375 21C1.51403 21 0 19.344 0 17.3086V4.92188C0 2.20795 2.0187 0 4.5 0C6.9813 0 9 2.20795 9 4.92188V17.3086H7.875V4.92188C7.875 2.88643 6.36098 1.23047 4.5 1.23047C2.63903 1.23047 1.125 2.88643 1.125 4.92188V17.3086C1.125 18.6656 2.13435 19.7695 3.375 19.7695C4.61565 19.7695 5.625 18.6656 5.625 17.3086V7.38281C5.625 6.70433 5.12033 6.15234 4.5 6.15234C3.87968 6.15234 3.375 6.70433 3.375 7.38281V17.3086H2.25V7.38281C2.25 6.02585 3.25935 4.92188 4.5 4.92188C5.74065 4.92188 6.75 6.02585 6.75 7.38281V17.3086C6.75 19.344 5.23598 21 3.375 21Z"/>
</svg>
