<svg width="8" height="12" viewBox="0 0 8 12" xmlns="http://www.w3.org/2000/svg">
<path d="M0.719222 9.48359L4.96194 5.59473L0.719222 1.70586C0.617985 1.61306 0.53768 1.5029 0.482892 1.38166C0.428103 1.26042 0.399902 1.13048 0.399902 0.999249C0.399902 0.86802 0.428103 0.738074 0.482892 0.616834C0.53768 0.495593 0.617985 0.38543 0.719222 0.292637C0.820459 0.199843 0.940644 0.126237 1.07292 0.0760174C1.20519 0.0257978 1.34696 -4.95911e-05 1.49013 -4.95911e-05C1.6333 -4.95911e-05 1.77507 0.0257978 1.90734 0.0760174C2.03961 0.126237 2.1598 0.199843 2.26103 0.292637L7.28012 4.89313C7.38149 4.98585 7.46191 5.09599 7.51679 5.21724C7.57166 5.33849 7.5999 5.46847 7.5999 5.59974C7.5999 5.73101 7.57166 5.86098 7.51679 5.98223C7.46191 6.10348 7.38149 6.21362 7.28012 6.30635L2.26103 10.9068C2.15987 10.9998 2.03971 11.0735 1.90743 11.1238C1.77514 11.1741 1.63334 11.2 1.49013 11.2C1.34692 11.2 1.20511 11.1741 1.07283 11.1238C0.940546 11.0735 0.820384 10.9998 0.719222 10.9068C0.303699 10.5159 0.292764 9.87449 0.719222 9.48359Z"/>
</svg>
