<svg width="11" height="17" viewBox="0 0 11 17" xmlns="http://www.w3.org/2000/svg">
<path d="M4.91113 16.6364H6.11284L6.11923 15.1982C8.82306 15 10.3699 13.4531 10.3699 11.3821C10.3699 9.02344 8.26696 8.10938 6.60503 7.70028L6.13841 7.57884L6.15119 3.47514C7.3465 3.63494 8.16468 4.29972 8.28613 5.34801H10.191C10.1398 3.39844 8.52903 1.94105 6.15758 1.74929L6.16397 0.272726H4.96227L4.95588 1.76207C2.66113 1.99219 0.980025 3.42401 0.980025 5.48864C0.980025 7.31037 2.284 8.37784 4.38699 8.94673L4.9367 9.09375L4.92392 13.4467C3.67747 13.2933 2.71227 12.6158 2.61 11.3821H0.628462C0.749911 13.5874 2.34153 15.0064 4.91753 15.1982L4.91113 16.6364ZM6.12562 13.4467L6.13841 9.42614C7.43599 9.78409 8.41397 10.2571 8.41397 11.3629C8.41397 12.4815 7.48074 13.2678 6.12562 13.4467ZM4.94309 7.25923C3.99068 6.97798 2.94238 6.47301 2.94878 5.37358C2.94878 4.41477 3.70943 3.6669 4.94949 3.48153L4.94309 7.25923Z"/>
</svg>
