<svg width="35" height="35" viewBox="0 0 35 35" xmlns="http://www.w3.org/2000/svg">
<path d="M25.6657 13.7211C25.4817 13.0437 24.9395 12.5101 24.2511 12.329C23.0033 12 18 12 18 12C18 12 12.9967 12 11.7489 12.329C11.0605 12.5101 10.5183 13.0437 10.3343 13.7211C10 14.9491 10 17.5111 10 17.5111C10 17.5111 10 20.0731 10.3343 21.3011C10.5183 21.9786 11.0605 22.4899 11.7489 22.671C12.9967 23 18 23 18 23C18 23 23.0033 23 24.2511 22.671C24.9395 22.4899 25.4817 21.9786 25.6657 21.3011C26 20.0731 26 17.5111 26 17.5111C26 17.5111 26 14.9491 25.6657 13.7211ZM16.3636 19.8372V15.185L20.5454 17.5112L16.3636 19.8372Z"/>
</svg>
