<svg width="25" height="25" viewBox="0 0 25 25" xmlns="http://www.w3.org/2000/svg">
<path d="M6.37843 5.70467L6.54474 6.5H7.35726H22.9829L21.1243 14.5H9.44819H8.21749L8.46935 15.7047L8.7307 16.9547L8.89699 17.75H9.70953H20.3692L20.2531 18.25H18.6023H10.231H8.43633L5.72763 5.29534L5.56134 4.5H4.7488H2V4H6.02199L6.37843 5.70467ZM20.3881 17.669L20.388 17.6691L20.3881 17.669ZM19.2942 19.972L20.0131 19.283L19.9856 19.4015L20.7129 19.7469C21.1321 19.946 21.4028 20.356 21.4028 20.8125C21.4028 21.4477 20.8702 22 20.1667 22C19.4632 22 18.9306 21.4477 18.9306 20.8125C18.9306 20.4879 19.0656 20.1911 19.2942 19.972ZM8.6826 19.4278L8.61029 19.0819L9.5391 19.972C9.76776 20.1911 9.90278 20.4879 9.90278 20.8125C9.90278 21.4477 9.37019 22 8.66667 22C7.96315 22 7.43056 21.4477 7.43056 20.8125C7.43056 20.3846 7.66779 19.9987 8.04416 19.787L8.6826 19.4278ZM6.01242 3.95423L6.01243 3.95428L6.01242 3.95423Z" fill="#dddddd" stroke="#ffffff" stroke-width="2"/>
</svg>
