<svg width="25" height="25" viewBox="0 0 25 25"  xmlns="http://www.w3.org/2000/svg">
<path d="M22.7144 20.1558L18.6248 16.067C18.4403 15.8824 18.1901 15.7799 17.9275 15.7799H17.2589C18.391 14.3322 19.0637 12.5113 19.0637 10.5304C19.0637 5.81818 15.2449 2 10.5319 2C5.81883 2 2 5.81818 2 10.5304C2 15.2427 5.81883 19.0608 10.5319 19.0608C12.5131 19.0608 14.3343 18.3882 15.7823 17.2563V17.9248C15.7823 18.1873 15.8848 18.4375 16.0694 18.622L20.1589 22.7109C20.5445 23.0964 21.168 23.0964 21.5495 22.7109L22.7103 21.5502C23.0959 21.1647 23.0959 20.5414 22.7144 20.1558ZM10.5319 15.7799C7.63186 15.7799 5.28149 13.434 5.28149 10.5304C5.28149 7.6309 7.62776 5.28093 10.5319 5.28093C13.4319 5.28093 15.7823 7.62679 15.7823 10.5304C15.7823 13.4299 13.436 15.7799 10.5319 15.7799Z"/>
</svg>
